<svg width="150" height="150" xmlns="http://www.w3.org/2000/svg" xml:space="preserve" enable-background="new 0 0 150 150" version="1.1">

 <g>
  <title>Layer 1</title>
  <path id="svg_4" d="m84.97105,9.10403c31.88755,5.01864 53.25768,30.56702 53.5503,61.7975c0.2576,27.49472 -18.06967,57.32494 -51.31525,63.7698c-1.11803,0.21391 -1.69131,0.62185 -2.26461,1.02978c-12.3923,2.06834 -24.62157,0.70198 -35.95282,-4.21367c-15.31255,-6.64279 -27.17686,-17.54303 -33.86453,-33.20129c-9.60742,-22.49442 -7.32605,-44.0576 6.9872,-63.75136c9.27927,-12.76745 21.6493,-21.89176 37.74438,-24.41624c7.30692,-1.14608 14.76968,-1.29867 22.67352,-1.55896c1.15511,0.41013 1.79846,0.47729 2.44181,0.54444m-64.75257,42.79658c-0.19431,0.27059 -0.47889,0.51396 -0.56988,0.81571c-3.39855,11.27083 -3.98858,22.47929 -1.17768,34.13059c2.76984,11.48106 8.7411,20.8994 17.30629,28.27646c12.43459,10.70973 27.08286,16.11845 43.89959,14.12716c15.79113,-1.86982 28.82453,-7.70833 38.65335,-21.29742c8.85489,-12.24255 13.61219,-24.91434 12.99799,-40.00475c-0.55191,-13.55968 -5.33354,-25.31639 -14.61667,-34.74735c-15.45595,-15.70209 -34.06411,-22.03678 -56.07068,-16.49054c-19.18352,4.83476 -32.49192,16.27119 -40.42231,35.19014z" fill="#FAA240"/>
  <path id="svg_23" d="m85.24417,135.77159c0.27062,-0.47841 0.8439,-0.88635 1.57282,-1.07951c-0.31963,0.52652 -0.79489,0.83825 -1.57282,1.07951z" fill="#FBB363"/>
  <path id="svg_24" d="m20.42565,51.56735c7.72322,-18.58569 21.03162,-30.02212 40.21513,-34.85688c22.00658,-5.54624 40.61474,0.78845 56.07069,16.49054c9.28313,9.43096 14.06476,21.18767 14.61667,34.74735c0.6142,15.09041 -4.1431,27.7622 -12.99799,40.00475c-9.82882,13.58909 -22.86222,19.4276 -38.65335,21.29742c-16.81673,1.99129 -31.465,-3.41743 -43.89959,-14.12716c-8.56519,-7.37706 -14.53645,-16.7954 -17.30629,-28.27646c-2.8109,-11.6513 -2.22087,-22.85976 1.17768,-34.13059c0.09099,-0.30175 0.37557,-0.54512 0.77705,-1.14897m67.33805,52.83967c0.00002,-2.49919 0.19701,-5.01712 -0.0386,-7.4939c-0.59435,-6.24778 0.99243,-11.29609 5.38237,-16.24534c7.10589,-8.01123 13.08369,-17.01137 19.79623,-25.38686c5.33548,-6.65729 3.85938,-17.22236 -3.76072,-20.8729c-5.67239,-2.71745 -12.50773,-2.26944 -18.88599,6.37132c-4.89038,6.62507 -10.05496,13.04774 -16.45819,21.31768c-1.41799,-2.41716 -2.1755,-4.06599 -3.24797,-5.4751c-4.80454,-6.31263 -9.4208,-12.80041 -14.63802,-18.75821c-5.32263,-6.07817 -12.99251,-6.49655 -18.64012,-1.73011c-5.73405,4.8394 -6.49619,11.91826 -1.65448,18.45595c5.6865,7.67839 11.36024,15.39279 17.51739,22.68826c5.66501,6.71234 9.65458,13.6367 8.17336,22.86171c-0.52152,3.24801 -0.22382,6.65906 -0.04189,9.98151c0.3082,5.62854 3.14299,9.67669 8.40827,11.70001c5.2986,2.03614 9.85301,0.86928 14.08848,-3.15307c4.03409,-3.83109 4.12254,-8.43562 3.99988,-14.26095z" fill="#FFFFFF"/>
  <path id="svg_25" d="m87.76358,104.88789c0.12278,5.34446 0.03433,9.94899 -3.99976,13.78008c-4.23547,4.02235 -8.78988,5.18921 -14.08848,3.15307c-5.26528,-2.02332 -8.10007,-6.07147 -8.40827,-11.70001c-0.18193,-3.32245 -0.47963,-6.7335 0.04189,-9.98151c1.48122,-9.22501 -2.50835,-16.14937 -8.17336,-22.86171c-6.15715,-7.29547 -11.83089,-15.00987 -17.51739,-22.68826c-4.84171,-6.53769 -4.07957,-13.61655 1.65448,-18.45595c5.64761,-4.76644 13.31749,-4.34806 18.64012,1.73011c5.21722,5.9578 9.83348,12.44558 14.63802,18.75821c1.07247,1.40911 1.82998,3.05794 3.24797,5.4751c6.40323,-8.26994 11.56781,-14.69261 16.45819,-21.31768c6.37826,-8.64076 13.2136,-9.08877 18.88599,-6.37132c7.6201,3.65054 9.0962,14.21561 3.76072,20.8729c-6.71254,8.37549 -12.69034,17.37563 -19.79623,25.38686c-4.38994,4.94925 -5.97672,9.99756 -5.38237,16.24534c0.23561,2.47678 0.03862,4.99471 0.03848,7.97477z" fill="#FA9A30"/>
 </g>
</svg>